<svg viewBox="0 0 400 400" xmlns="http://www.w3.org/2000/svg" height="400" width="400"><path d="M280.268 276.782a68.6 68.6 0 0 1 2.974 37.744l23.948 -2.65 -13.34 -36.764Z" fill="#000000" stroke-width="2"></path><path d="m99.8 305.414 3.818 8.254a81.168 81.168 0 0 0 36.89 -17.6l3.878 1.912s0.896 -25.49 -9.678 -45.6a49.23 49.23 0 0 0 -17.486 6.162s-3.212 15.372 8.896 26.134c0 0.012 -14.252 17.616 -26.318 20.738Z" fill="#000000" stroke-width="2"></path><path d="M111.702 333.27s28.642 -2.632 61.182 -23.94c0 0 12.426 3.03 23.4 4.572a96.8 96.8 0 0 1 -24.168 19.508l-58.6 4.212Z" fill="#000000" stroke-width="2"></path><path d="M166.628 253.2s5.814 23.24 -5.026 52.3c0 0 4.6 1.53 15.07 4.46 0 0 13.74 -24.188 7.7 -52.144Z" fill="#000000" stroke-width="2"></path><path d="M207.126 265.452s1.8 32.226 -9.774 48.09a189.246 189.246 0 0 0 18.96 2.466s12.76 -15.48 11.816 -44c0 -0.008 -20.946 -6.096 -21.002 -6.556Z" fill="#000000" stroke-width="2"></path><path d="M244.888 275.422s5.754 23.78 -3.166 41.946c0 0 17.38 -0.2 23.148 -1.248a93.2 93.2 0 0 0 0.73 -39.034 104.83 104.83 0 0 1 -20.712 -1.664Z" fill="#000000" stroke-width="2"></path><path d="M73.84 270.302a0.95 0.95 0 0 0 -1.73 -0.2c-3.614 5.918 -8.684 13.34 -12.694 19.058a1.336 1.336 0 0 0 0.362 1.866 13.6 13.6 0 0 0 5.762 2.454c12.75 1.56 17.66 -16.48 8.3 -23.178Zm-0.646 1.744a10.926 10.926 0 0 1 2.742 10.91 32.4 32.4 0 0 0 -6.446 -4.582q1.91 -3.138 3.71 -6.328Zm-10.786 17.44q1.082 -1.644 2.156 -3.292a18.522 18.522 0 0 0 5.48 4.074 8.6 8.6 0 0 1 -7.644 -0.782Zm9.664 -0.366a34.308 34.308 0 0 0 -6.268 -4.846c0.7 -1.09 2.424 -3.838 2.6 -4.116a23.976 23.976 0 0 0 6.754 5 10.668 10.668 0 0 1 -3.086 3.962Z" fill="#191919" stroke-width="2"></path><path d="m98.104 298.452 -1.412 -3.578a1.236 1.236 0 0 0 -1 -0.648c-4.13 -0.36 -3.236 -0.584 -11.158 -1a24.418 24.418 0 0 0 2.882 -5.8 0.952 0.952 0 0 0 -1.8 -0.642c-3.582 9.374 -14.526 17.15 -23.854 11.864 -5.8 -3.142 -9.7 -8.844 -13.226 -14.456a6.278 6.278 0 0 0 4.214 -2.462 11.2 11.2 0 0 0 1.846 -4.732 27.898 27.898 0 0 0 2.22 4.2 1.274 1.274 0 0 0 1.842 0.414l2.968 -2.584a0.952 0.952 0 0 0 -1.138 -1.524l-2.036 1.252c-1.344 -2.878 -1.612 -3.376 -2.422 -4.834 1.8 -1.53 5.21 0.018 9.774 -0.372a9.17 9.17 0 0 0 7.532 -4.45c2.088 -3.496 1.83 -7.52 5.758 -14.466 0.946 -0.718 -0.364 -2.172 -0.81 -6.012a0.952 0.952 0 0 0 -1.076 -0.816 43.8 43.8 0 0 0 -11.418 3.854 98.04 98.04 0 0 0 -24.44 14.976 16.244 16.244 0 0 0 -1.112 -2.226 0.952 0.952 0 0 0 -1.824 0.54 9.094 9.094 0 0 0 0.744 3.67 32.4 32.4 0 0 0 -3.4 3.8 1.384 1.384 0 0 0 -0.13 1.436 34.658 34.658 0 0 0 1.664 3.3 16 16 0 0 0 8.972 6.906c3.824 7.024 7.2 13.018 14.146 17 8.148 4.464 17.064 1.086 22.83 -6.106a39.508 39.508 0 0 0 11.646 1.67l1.492 2.634a0.95 0.95 0 0 0 1.712 -0.824Zm-43.682 -35.114a67.43 67.43 0 0 1 7.334 -5.356h0.044a0.836 0.836 0 0 1 1.322 0.432c2.088 4.292 1.81 6.616 1.57 7.466 -1.256 4.17 -5.768 4.6 -8.736 1.524a9.888 9.888 0 0 1 -1.81 -2.542 1.292 1.292 0 0 1 0.276 -1.524Zm-12.53 10.908a0.71 0.71 0 0 1 0.034 -1.176v-0.054a57.65 57.65 0 0 1 6.214 -4.644 1.104 1.104 0 0 1 1.312 0.16c3.64 3.244 3.032 8.894 -1.816 8.866 -2.636 -0.062 -5.544 -3.168 -5.744 -3.152Z" fill="#191919" stroke-width="2"></path><path d="M87.496 276.726c2.98 0.516 7.032 0.926 9.576 1.078a0.952 0.952 0 0 1 -0.098 1.9 92.01 92.01 0 0 1 -10.866 -0.83 1.182 1.182 0 0 1 -0.984 -1.174c0 -5.4 -2.176 -11.73 -3.756 -16.59a1.38 1.38 0 0 1 0.73 -1.674c2.836 -1.316 6.088 -3.764 6.74 -6.818a3.58 3.58 0 0 0 -2.562 -4.44 9.656 9.656 0 0 0 -6.6 0.116 0.872 0.872 0 0 1 -0.726 -1.584 11.582 11.582 0 0 1 9.614 0.036 5.614 5.614 0 0 1 2.818 6.364 12.758 12.758 0 0 1 -7.034 8.282 52.44 52.44 0 0 1 3.148 15.334Z" fill="#191919" stroke-width="2"></path><path d="M12.022 264.96a20.456 20.456 0 0 0 6 2c17.646 3.05 24.64 -17.974 40.464 -20.47a9.648 9.648 0 0 1 7.222 1.276 0.954 0.954 0 0 0 1.112 -1.548 11.82 11.82 0 0 0 -8.638 -1.936c-16.966 2.054 -23.848 22.514 -39.86 20.614A18.12 18.12 0 0 1 12.8 263.4a0.872 0.872 0 0 0 -0.778 1.56Z" fill="#191919" stroke-width="2"></path><path d="M10.376 253.082a12.066 12.066 0 0 0 9.246 4.698 22.238 22.238 0 0 0 14.178 -5.38 0.95 0.95 0 0 0 -1.126 -1.532 25.958 25.958 0 0 1 -10.748 4.046 12.286 12.286 0 0 1 -10.26 -3 0.872 0.872 0 0 0 -1.29 1.168Z" fill="#191919" stroke-width="2"></path><path d="M70.512 234.47a10.864 10.864 0 0 1 2.756 -0.314c5.918 0.072 9.462 4 9.9 9.946a0.952 0.952 0 0 1 -1.9 0.15c-0.434 -4.708 -3.144 -7.884 -8 -7.8a8.364 8.364 0 0 0 -2.814 0.512 1.184 1.184 0 0 1 -1.342 -0.4 16.584 16.584 0 0 0 -20.558 -4.586c-8.64 3.984 -11.554 10.946 -17.89 14.6 -6.17 3.562 -15.532 2.678 -20.436 -2.658a0.872 0.872 0 0 1 1.272 -1.2 13.5 13.5 0 0 0 8.674 3.72c13.154 1.074 14.464 -11.148 27.232 -16.972a19.466 19.466 0 0 1 14.832 -0.862 16.844 16.844 0 0 1 8.274 5.864Z" fill="#191919" stroke-width="2"></path><path d="M336.122 252.692a40.8 40.8 0 0 1 -9.518 14.162 0.952 0.952 0 0 0 1.186 1.488 22.34 22.34 0 0 0 10 -15.162 0.872 0.872 0 0 0 -1.668 -0.488Z" fill="#191919" stroke-width="2"></path><path d="M342 254.104c-2.032 4.8 -6.316 12.482 -10.468 15.916a0.952 0.952 0 0 0 1.168 1.506c6.464 -4.698 9.048 -9.4 10.95 -16.868a0.87 0.87 0 0 0 -1.65 -0.554Z" fill="#191919" stroke-width="2"></path><path d="M347.6 256.89c-3.4 11.252 -13.8 25.752 -24.722 30.71a0.95 0.95 0 0 0 0.764 1.74c13.332 -5.63 22.038 -18.066 25.636 -31.982a0.872 0.872 0 0 0 -1.678 -0.468Z" fill="#191919" stroke-width="2"></path><path d="M339.57 281.176c-9.46 9.514 -24.71 15.514 -36.358 15.058q-2.9 -7.736 -5.618 -15.56c1.6 -0.092 4.034 -0.348 5.578 -0.562 1.824 -0.254 -0.2 -2.846 4.182 -7.246 6.964 -6.962 23.014 -9.72 24.276 -22.462a0.952 0.952 0 0 0 -1.888 -0.234c-2.062 14.096 -25.8 13.546 -27.748 27.93 -1.572 0.304 -3.4 0.644 -5 0.836q-0.83 -2.4 -1.652 -4.79a1.38 1.38 0 0 0 -1.678 -0.882c-7.212 2.052 -14.506 2.058 -22 2.322 -40.094 1.414 -64.986 -14.94 -101.988 -23.4 -26.142 -5.964 -53.67 -2.164 -69.8 19.258a1.122 1.122 0 0 0 -0.16 1.06c3.774 10.382 5.974 23.062 -1.14 31.466a1.044 1.044 0 0 0 -0.168 1.074c3.2 7.666 12.454 29.514 13.8 32.8a0.952 0.952 0 0 0 1.764 -0.712c-1.336 -3.306 -10.316 -24.83 -13.4 -32.314 7.134 -8.89 5.238 -21.698 1.462 -32.502 15.664 -20.126 42.068 -23.452 67.086 -17.65 37.148 8.6 61.944 25.082 102.652 23.676a99.322 99.322 0 0 0 21.4 -2.082c4.07 11.836 8.142 23.176 12.914 34.752 -45.712 6.782 -91.252 7.524 -135.68 -3.732a120.6 120.6 0 0 1 -36.206 -16.528 0.87 0.87 0 1 0 -1.036 1.4 122.304 122.304 0 0 0 36.704 17.094q12.738 3.312 25.542 5.356a79.708 79.708 0 0 0 6.232 13.682 0.952 0.952 0 0 0 1.764 -0.712 58.04 58.04 0 0 0 -5.564 -12.588c36.728 5.6 73.45 3.922 110.34 -1.528a1.354 1.354 0 0 0 0.986 -0.68c0.55 -0.974 0.2 -0.268 -5.226 -14.584 13.654 1.244 27.36 -5.266 37 -15.708a0.95 0.95 0 0 0 -1.372 -1.308Z" fill="#191919" stroke-width="2"></path><path d="M159.082 81.8a8.71 8.71 0 0 0 -14.682 -6.012 8.578 8.578 0 0 0 -0.164 12.2 8.67 8.67 0 0 0 14.846 -6.188ZM150.4 87.83a6.2 6.2 0 1 1 4.468 -10.498 6.246 6.246 0 0 1 -4.468 10.498Z" fill="#191919" stroke-width="2"></path><path d="M183.42 85.052a8.71 8.71 0 0 0 -14.69 -6.012 8.578 8.578 0 0 0 -0.166 12.2 8.672 8.672 0 0 0 14.856 -6.188Zm-8.674 6.03a6.2 6.2 0 1 1 4.468 -10.5 6.248 6.248 0 0 1 -4.468 10.5Z" fill="#191919" stroke-width="2"></path><path d="M207.946 88.55a8.712 8.712 0 0 0 -14.692 -6.012 8.578 8.578 0 0 0 -0.164 12.2 8.672 8.672 0 0 0 14.856 -6.188Zm-8.676 6.03a6.2 6.2 0 1 1 4.468 -10.5 6.248 6.248 0 0 1 -4.468 10.5Z" fill="#191919" stroke-width="2"></path><path d="M201.2 185.73s-1.724 -0.5 -4.43 -1.266a174.256 174.256 0 0 0 4.43 -29.736 3.234 3.234 0 1 0 -6.326 -1.346 173.912 173.912 0 0 0 -7.946 28.358 440.24 440.24 0 0 0 -17.144 -4.316c2.6 -8.4 5 -18.2 6.846 -26.868a3.238 3.238 0 0 0 -6.152 -2.018 318.29 318.29 0 0 0 -12.16 31.062 5.138 5.138 0 0 0 3.8 6.6c8.122 1.74 16.072 3.126 23.298 4.276a351.02 351.02 0 0 0 -2.16 16.024 3.532 3.532 0 1 0 6.908 1.472s2.284 -7.014 4.706 -16.046c2.946 0.436 4.846 0.702 4.846 0.702a3.532 3.532 0 1 0 1.478 -6.906Z" fill="#191919" stroke-width="2"></path><path d="M314.064 204.778s-1.722 -0.5 -4.428 -1.266a174.2 174.2 0 0 0 4.438 -29.736 3.234 3.234 0 0 0 -6.326 -1.346 173.654 173.654 0 0 0 -7.948 28.358c-6.2 -1.678 -10.904 -2.874 -17.144 -4.316 2.6 -8.426 5 -18.246 6.846 -26.87a3.236 3.236 0 0 0 -6.152 -2.016 317.22 317.22 0 0 0 -12.16 31.062 5.136 5.136 0 0 0 3.8 6.6c8.104 1.736 16.048 3.122 23.298 4.276a349.104 349.104 0 0 0 -2.158 16.024 3.532 3.532 0 1 0 6.908 1.472s2.284 -7.014 4.704 -16.046c2.946 0.436 4.848 0.702 4.848 0.702a3.53 3.53 0 1 0 1.476 -6.906Z" fill="#191919" stroke-width="2"></path><path d="M261.29 173.01a21.012 21.012 0 0 0 -24.69 -16.834 21.562 21.562 0 0 0 -17.2 17.2l-3.6 19.4a22.06 22.06 0 0 0 3.66 16.53 21.7 21.7 0 0 0 30.414 5.174 21.35 21.35 0 0 0 8.582 -13.926l2.948 -19.518a20.698 20.698 0 0 0 -0.114 -8.026Zm-6.814 6.762c-4.4 20.524 -4.148 20.982 -6.142 23.888a12.666 12.666 0 0 1 -8.09 5.2 12.344 12.344 0 0 1 -14.324 -9.586c-0.658 -3.16 -0.094 -3.708 3.458 -24.086a12.738 12.738 0 0 1 22.684 -5.378 11.86 11.86 0 0 1 2.414 9.962Z" fill="#191919" stroke-width="2"></path><path d="M116.8 248.6a15.132 15.132 0 0 1 -6.744 -1.894 14 14 0 0 1 -6.93 -14.332L127.4 75.756a13.6 13.6 0 0 1 15.474 -11.368c246.138 37.434 233.57 34.2 237.974 36.844a13.648 13.648 0 0 1 6.466 13.712l-22.972 153.866a13.94 13.94 0 0 1 -15.568 11.76l-5.028 -0.65a0.95 0.95 0 0 0 -0.244 1.884l5.022 0.67a15.904 15.904 0 0 0 17.8 -13.364l23.488 -153.8a16.2 16.2 0 0 0 -13.584 -18.444A437197.206 437197.206 0 0 0 143.276 61.74a16.234 16.234 0 0 0 -18.458 13.622l-23.544 156.722a15.834 15.834 0 0 0 7.914 16.164 17.186 17.186 0 0 0 7.428 2.072 0.87 0.87 0 0 0 0.184 -1.72Z" fill="#191919" stroke-width="2"></path><path d="m123.692 93.936 262.382 38.566a0.952 0.952 0 0 0 0.276 -1.882l-262.4 -38.4a0.87 0.87 0 0 0 -0.258 1.716Z" fill="#191919" stroke-width="2"></path></svg>