<svg xmlns="http://www.w3.org/2000/svg" viewBox="0 0 400 400" height="400" width="400"><path d="M93.702 291.748c13.148 0.272 26.282 1.292 39.432 1.728 12.658 0.42 42.53 0.982 44.8 1.168a3.766 3.766 0 0 1 1.944 0.668 5.5 5.5 0 0 0 3.128 1 2.666 2.666 0 0 1 1.78 1.536c0.986 2.704 2.91 3.048 5.534 3.128 91.928 2.768 64.242 2.768 74.512 2.516a12.676 12.676 0 0 1 7.154 2.352 211.148 211.148 0 0 1 23.236 15.8 151.358 151.358 0 0 1 15.216 13.434c2.27 2.256 4.744 4.486 4.214 8.13 -0.882 6.078 -1.4 4.9 -17.906 5.4 -59.114 1.788 -70.166 2.27 -81.692 2.026 -23.7 -0.5 -109.238 -3.18 -128.316 -3.916 -25.324 -0.976 -32.832 -2.046 -43.484 -4.962a7.586 7.586 0 0 1 -2.244 -1.2c-2.344 -1.64 -2.79 -3.428 -0.842 -5.492a55.98 55.98 0 0 1 7.8 -7 202.566 202.566 0 0 1 25.522 -15.486c22.27 -12.436 20.884 -12.104 23.128 -12.102 25.944 0.034 51.888 0.2 77.818 0.258 1.562 0 2 -0.6 2.378 -3.304 -3.696 -0.352 -12.912 0.15 -23.576 -0.122 -35.976 -0.916 -56.65 -3.482 -112.014 -2.924 -6.418 0.066 -12.836 -0.236 -19.24 -0.162a24.816 24.816 0 0 1 -9.34 -1.7 3.562 3.562 0 0 1 -1.32 -6.242 21.684 21.684 0 0 1 10.6 -5.6 116.924 116.924 0 0 1 23.66 -3.834c9.328 -0.6 18.668 -1.056 28.01 -1.034a80.382 80.382 0 0 1 22.108 3.2 7.558 7.558 0 0 1 3.114 1.862c1.42 1.436 0.628 3.296 -1.238 4.27a24.264 24.264 0 0 1 -7.668 1.85 81.468 81.468 0 0 1 -20.152 0.462c-3.578 -0.308 -4.502 -1.022 -5.4 0.176a1.684 1.684 0 0 1 -1.374 0.326 160.984 160.984 0 0 1 -8.39 -1.494c-0.4 -0.086 -0.91 -1.02 -0.87 -1.51a12.08 12.08 0 0 1 0.816 -3.468 1.778 1.778 0 0 1 1.428 -0.896c2.788 0.434 5.578 0.976 8.334 1.59a1.84 1.84 0 0 1 1.238 0.938c0.326 1.234 1.2 1.21 2.122 1.264 11.086 0.666 18.072 0.774 27.742 -1.658a0.308 0.308 0 0 0 0 -0.6c-1.064 -0.298 -2.128 -0.636 -3.2 -0.886a103.084 103.084 0 0 0 -24.284 -2.502 216.462 216.462 0 0 0 -40.696 3.8 31.078 31.078 0 0 0 -11.79 4.486 16.02 16.02 0 0 0 -1.752 1.536 0.458 0.458 0 0 0 0.132 0.754 26.612 26.612 0 0 0 9.432 1.688c6.722 0.412 45.388 0.23 70.456 0.748Zm-51.616 45.07a0.73 0.73 0 0 0 0.264 1.172c11.288 5.88 38.85 5.6 56.246 6.19 126.8 4.338 96.74 3.97 196.33 1.984 4.772 -0.094 9.544 -0.19 14.304 -0.462a3.024 3.024 0 0 0 2.42 -4.636 16.136 16.136 0 0 0 -2.38 -3.482 57.8 57.8 0 0 0 -5.628 -5.4c-24.334 -19.742 -22 -17.536 -32.376 -24.052a7.9 7.9 0 0 0 -3.426 -1.55c-78.958 -3.634 -126.482 -3 -167.816 -3.6a18 18 0 0 0 -10.212 2.924c-22 13.67 -31.148 16.774 -41.62 25.508 -2.09 1.74 -4.07 3.606 -6.106 5.404Zm16.236 -54.724a14.66 14.66 0 0 0 -2.706 -0.38c-0.136 0.448 -0.316 0.968 -0.164 1.088 0.756 0.6 2.288 0.72 0.8 1.046a4.424 4.424 0 0 0 -1.168 0.382c0.04 0.122 -0.178 0.694 -0.136 0.816l2.678 0.42c0.246 -1.128 0.45 -2.12 0.696 -3.372Z" fill="#ffffff" stroke-width="2"/><path d="M160.844 272.984c-2.678 -0.938 -5.424 -1.81 -7.982 -3 -5.924 -2.766 -11.858 -5.544 -17.566 -8.716a32.926 32.926 0 0 1 -7.492 -5.982c-3.726 -3.862 -1.522 -7.748 2.378 -9.518a31.766 31.766 0 0 1 13.366 -2.584c6.432 0.024 12.864 0.544 19.282 0.91 1.916 0.4 2.4 1.81 -2.026 1.374 -10.648 0 -16.412 -0.54 -23.958 0.87a30.726 30.726 0 0 0 -6.228 2.122 3.018 3.018 0 0 0 -0.708 5.276 35.548 35.548 0 0 0 5.956 4.6 92.2 92.2 0 0 0 10.294 5.412c30.68 13.494 58.412 17.9 79.312 16.78a22.658 22.658 0 0 0 12.114 -3.428 6.466 6.466 0 0 0 2.366 -6.43 14.042 14.042 0 0 0 -8.934 -9.4c-5.576 -2.36 -11.386 -4.2 -17.104 -6.242 -3.028 -1.084 -1.988 -1.72 -0.4 -1.482a66.548 66.548 0 0 1 17.486 4.556c4.2 1.876 8.212 4.132 10.428 8.416 2.856 5.52 2.122 9.07 -2.924 13.692a8.232 8.232 0 0 1 1.618 0.912 2.38 2.38 0 0 1 0.124 3.8c-18.33 10.144 -89.146 7.454 -116.364 -3.14a17.738 17.738 0 0 1 -4.788 -3.1 3.536 3.536 0 0 1 0.748 -5.248 23.94 23.94 0 0 1 11.736 -2.584c8.404 0.208 20.732 1.292 29.266 2.134Z" fill="#ffffff" stroke-width="2"/><path d="M129.2 182.36c43.448 12.036 90.49 18.052 133.7 26.2 2.666 0.502 10 3.304 -4.4 2.448C143.096 191.436 161.054 193.226 114.492 182c-2.216 -0.774 -2.942 -0.68 0.244 -14.276 2 -8.526 4.082 -29.522 10.47 -53.736 2.35 -8.906 4.852 -14.264 10.102 -45 0.216 -1.266 0.844 -1.982 2.162 -1.81 20.6 2.694 40.854 8.56 107.268 21.308 7.714 1.48 31.304 6.55 38.426 8.116a36.458 36.458 0 0 1 5.642 1.646c2.624 0.734 1.814 3.146 -0.624 2.6 -7.586 -1.662 -48.04 -10.144 -48.244 -10.184a2.014 2.014 0 0 0 -1.576 0.694c-2.52 3.03 -5.02 6.064 -7.4 9.2 -6.5 8.588 -7.864 12.4 -9.26 16.886 -2.764 8.908 -4.378 11.146 -12.984 17.214 -14.074 9.926 -14.018 8.158 -32.294 18.344 -2.2 1.226 -4.144 2.914 -6.268 4.296 -3.502 2.278 -5.768 5.8 -8.688 8.62a48.714 48.714 0 0 1 -7.954 5.902 28.964 28.964 0 0 1 -10.946 4.146 22.622 22.622 0 0 0 -12.55 5.494c-0.194 0.202 -0.392 0.452 -0.818 0.9Zm-12.088 -2.692c2.87 0.576 5.752 1.15 8.6 1.822a2.188 2.188 0 0 0 2.2 -0.708c3.732 -4.498 8.4 -6.288 14.154 -7.178a31.854 31.854 0 0 0 15.8 -7.954c2.708 -2.31 4.842 -5.276 7.466 -7.696 12.38 -11.422 29.6 -14.766 46.61 -29a17.986 17.986 0 0 0 5.52 -7.016 5.254 5.254 0 0 0 0.218 -2.556c-2.02 -9.76 0.56 -9.512 -0.558 -14.644 -1.646 -7.56 1.352 -10.034 6.106 -17.418 -28.664 -4.9 -56.414 -13.138 -85.028 -17.92 -3.6 26.362 -4.3 23.32 -9.812 46.022 -6.746 27.772 -8.54 41.834 -10.702 53.354 -0.532 2.842 -1.302 5.634 -2.08 8.484a1.954 1.954 0 0 0 1.51 2.408Zm120.226 -89.632c-3.658 -0.708 -7.328 -1.446 -11.014 -2.08a1.928 1.928 0 0 0 -1.524 0.6c-1.17 1.428 -2.16 3 -3.29 4.448 -6.12 7.884 -1.8 9.046 -2.828 17.77a41.2 41.2 0 0 0 0.06 6 0.4 0.4 0 0 0 0.782 0.106c2.05 -8.848 7.904 -14.766 17.818 -26.844Z" fill="#ffffff" stroke-width="2"/><path d="M310.412 93.72c-2.484 -4.022 -6.894 -6.214 -11.244 -7.872a158.322 158.322 0 0 0 -27.304 -7.588c-41.946 -9.88 -70.228 -17.964 -94.84 -21.742 -11.882 -1.834 -24.262 -2.774 -26.424 -3.118a30.224 30.224 0 0 0 -13.678 1.074 14.632 14.632 0 0 0 -10.212 10.822c-1.42 5.086 -19.24 83.304 -23.31 108.892a74.238 74.238 0 0 0 -1.034 16.86c1.062 5.032 5.372 6.472 9.45 7.8 0.2 0.066 33.4 8.17 57.34 12.182q9.178 1.53 18.356 3.074c-4.784 7.2 -23.896 35.502 -26.024 41.09 -0.748 2 0.938 2.734 1.618 1.264 10.09 -14.422 10.342 -16.346 26.772 -41.076a2.2 2.2 0 0 1 1.8 -0.748c4.216 0.626 8.4 1.386 12.946 2.148 0 5.536 -0.714 35.32 1.916 47.372 0.68 2.19 1.904 3.944 2.6 0.612 -0.4 -8.58 -1.8 -13.924 -1.876 -22.34 -0.068 -8.484 -0.3 -16.982 -0.464 -25.576 16.68 3.254 14.6 2.55 18.574 3.304 0.88 0.166 0.434 0.238 45.484 9.152 2.814 0.544 5.642 1.414 8.416 -0.068 2 -0.654 1.156 -2.706 -0.232 -2.136 -1 -0.08 -2.066 0.314 -3.046 0.136q-7.136 -1.242 -14.236 -2.706c-67.2 -13.95 -138.774 -22.544 -152.138 -29.056a7.77 7.77 0 0 1 -4.038 -3.848c-1.8 -4.052 -1 -8.322 -0.45 -12.388 1.454 -10.566 22.216 -106 23.742 -111.2a26.038 26.038 0 0 1 3.44 -7.14c2.23 -3.262 5.942 -4.296 9.6 -4.8a62.678 62.678 0 0 1 10.388 -0.4c0.2 0 16.086 1.884 16.288 1.916 18.248 2.858 102.218 22.42 128.236 30.812 4.868 1.576 9.4 3.63 12.264 8.266 1.252 1.65 4.56 2.27 1.32 -2.974Z" fill="#ffffff" stroke-width="2"/><path d="M388.582 45.356a51.98 51.98 0 0 1 -23.6 18.4c-0.38 0.15 -0.748 -0.978 -1.116 -1.332a8.434 8.434 0 0 1 1.36 -0.354 32.132 32.132 0 0 0 11.898 -7.478 65 65 0 0 0 7.642 -8.8c3.6 -6.716 0.8 -3.8 0.504 -3.48 -1.62 1.686 -3.238 3.358 -4.774 5.098a55 55 0 0 1 -17 13.272 1.308 1.308 0 0 1 -1.2 -0.042c-1.876 -2.08 -3.698 -4.228 -5.4 -6.186a29.366 29.366 0 0 0 16.248 -17.664c2.014 -7.6 -7.448 12.022 -16.874 15.666 -1.156 0.448 -1.128 -0.328 -1.292 -1.156a83.056 83.056 0 0 0 6.826 -5.2 24.154 24.154 0 0 0 6.186 -9.2c1.496 -7.9 -0.53 -2.53 -0.692 -2.162a28.232 28.232 0 0 1 -8.852 11c-1.8 1.374 -3.074 3.372 -6.296 3a100.946 100.946 0 0 0 -15.284 0.26 2.344 2.344 0 0 0 -1.618 0.842 13.588 13.588 0 0 0 -1.468 3.142q-2.02 6.2 -3.93 12.428c-0.816 2.664 -1.2 5.546 -4.4 6.6a4.442 4.442 0 0 0 -0.816 0.4c-2.584 1.482 -2.706 1.74 -2.354 4.6a13.36 13.36 0 0 0 -1.888 0.722c-4.682 2.558 -5.508 5.566 -5.874 11.026a48.188 48.188 0 0 0 -0.082 5.372 6.828 6.828 0 0 1 -7.124 6.934c-4.4 -0.34 -6.636 -3.276 -6.214 -6.744 0.108 -0.978 0.08 -1.51 0.122 -2.516 -0.68 -1.6 -1.878 -0.516 -2.054 0.586 -0.218 1.346 -0.448 2.692 -0.544 4.038a7.88 7.88 0 0 0 6.364 7.138c2.584 0.3 12 1.564 12.156 -10.144a36.272 36.272 0 0 1 0.448 -6.974 8.574 8.574 0 0 1 6 -7.684l2.828 3.754a12.4 12.4 0 0 0 -1.358 1c-5.4 5.096 -3.764 4.288 -4.066 15.4 -0.08 3.868 -0.648 6.136 -6.242 9.518a12.562 12.562 0 0 1 -19.348 -8.022 13.288 13.288 0 0 1 0.856 -9.11c0.34 -0.708 0.49 -1.454 -0.476 -1.632 -0.42 -0.068 -1 0.368 -1.428 0.666 -0.23 0.15 -0.326 0.504 -0.448 0.79a14.944 14.944 0 0 0 -0.23 12.304c1.944 4.678 4.786 8.4 10.482 9.22a17.374 17.374 0 0 0 12.524 -2.216c7.372 -4.782 6.68 -7.78 6.432 -15.216 -0.11 -3.454 0.012 -6.784 2.976 -9.274 1.388 -1.168 1.8 -1.142 3.074 0.082 0.556 0.544 1.726 1.184 2.2 0.952 6.568 -3.22 5.888 -4.656 8.6 -4.12 1.44 0.3 19.6 -0.346 20.34 -0.4 1.318 -0.112 2.564 0.524 2.788 -2.338 0.07 -0.896 1.414 -9.8 1.958 -13.352a1.852 1.852 0 0 1 0.788 -1.292c2.078 -0.88 9.848 -3.498 13.23 -6.228a37.58 37.58 0 0 0 10.048 -10.972c1.994 -4.84 0.082 -3.806 -0.536 -2.922Zm-26.052 22.136c-0.68 3.67 -1.25 7.382 -1.8 11.082 -0.19 1.4 -0.644 1.714 -2.23 1.74 -0.748 0.012 -15.678 0.49 -20.722 -0.4a1.898 1.898 0 0 1 -1.102 -0.762c-1.74 -2.42 -3.454 -4.868 -5.098 -7.342a2.35 2.35 0 0 1 -0.34 -1.714c1.644 -5.738 3.386 -11.448 5.03 -17.186 0.244 -0.83 0.544 -1.184 1.388 -1.212 2 -0.068 3.6 -0.38 13.148 -0.706 0.448 -0.014 1.168 0.2 1.318 0.504 2.312 4.826 6.052 8.578 9.45 12.576a3.786 3.786 0 0 1 0.958 3.42Z" fill="#ffffff" stroke-width="2"/><path d="M350.564 291.64c-0.36 2.148 -3.182 2.366 -3.14 2.91 0.496 6.54 3.044 37.148 3.548 45.658 0.364 6.112 0.064 11.982 0.3 15.054 1.224 -0.4 2.338 -0.776 3.698 -1.212 0 -0.4 0.456 -57.57 0.626 -60.982 0.248 -5 1.904 -3.944 2.23 0.856 -0.082 20.178 -0.232 40.356 -0.286 60.522 0 0.448 -0.108 1.13 -0.4 1.29a51 51 0 0 1 -6.4 3.278c-1.264 0.492 -2.05 -0.666 -2.04 -2.488 0.086 -15.546 0.52 -1 -2.53 -46.544 -0.344 -5.146 -0.252 -8.872 -0.584 -15.078a19.146 19.146 0 0 1 -5.67 0.04c-0.638 3.686 -1.242 7.79 -1.972 11.49 -0.97 4.92 -9.504 47.97 -9.762 49.384 -0.272 1.482 -0.71 1.758 -1.8 0.87a71.956 71.956 0 0 1 -5.834 -5.138 3.576 3.576 0 0 1 -0.734 -2.612c0.506 -4.838 1.15 -9.654 1.672 -14.494 0.882 -8.182 -0.174 -5.166 3.8 -29.832 0.4 -2.474 0.87 -4.936 1.374 -7.384 0.312 -3.126 1.428 -3.182 1.522 0.246s-2.632 25.63 -3.548 33.298c-0.716 5.984 -1.322 11.966 -2.082 17.948 -0.136 1.076 -0.448 1.428 0.476 1.986 0.87 0.788 2.082 1.496 3.1 2.312 2.2 -10.43 1.298 -7.238 2.788 -15.528 2.448 -13.626 3.634 -17.544 6.31 -30.362 0.904 -4.34 1.634 -8.726 2.542 -13.068a2 2 0 0 1 1.414 -1.278c3.154 0.072 4.976 1.116 7.682 -0.434 0.936 -0.6 4.048 -2.776 3.7 -0.708Z" fill="#ffffff" stroke-width="2"/><path d="M330.306 265.016c-1.6 2.216 -3.63 2.682 -5.426 1.238a15.784 15.784 0 0 1 -3.93 -10.442c-0.038 -1.264 -0.532 -1.812 -1.754 -1.728a3.658 3.658 0 0 1 -0.49 -0.026c-3.558 -0.2 -4.354 -1.332 -4.31 -4.84 0.062 -4.91 -0.358 -9.818 -0.544 -14.74 -0.096 -2.568 -0.092 -5.876 -0.108 -7 -0.022 -1.506 0.558 -2.3 1.836 -1.93a70.2 70.2 0 0 1 14.114 5.466c3.52 2.212 4.518 2.968 5.316 4.936a4.65 4.65 0 0 1 0.358 1.732c0.032 8.742 0.032 20.236 -5.062 27.334Z" fill="#ffffff" stroke-width="2"/><path d="M354.712 284.6c-3.128 0.734 -6.228 1.686 -9.382 2.122a77.414 77.414 0 0 1 -8.682 0.334c4.922 -16.046 3.4 -32.3 1.4 -48.6 2.814 0.734 4.162 0.246 4.882 -0.382 1.438 -1.258 1.676 -4.118 1.876 -4.052 7.34 32.958 4.812 21.058 9.906 50.578Z" fill="#ffffff" stroke-width="2"/><path d="M335.4 211.852c1.734 1.036 -0.616 0.904 -2.162 2.678a3.034 3.034 0 0 1 -1.21 1.048 1.486 1.486 0 0 1 0.122 -1.346 4.784 4.784 0 0 1 3.25 -2.38Zm-6.512 2.652a0.83 0.83 0 0 0 -0.326 1.088c1.23 2.562 -0.772 3.572 -0.64 4 0.49 1.632 -0.544 1.252 -1.454 1.2a2.384 2.384 0 0 0 -2.544 3.306 2.318 2.318 0 0 0 3.726 0.72 2.554 2.554 0 0 1 2.978 0.108c1.118 0.814 2.42 1.47 3.916 2.4 1.184 0.562 -0.624 0.58 -1.89 0.054 -0.912 -0.38 -0.158 2.162 -0.2 3.522a0.864 0.864 0 0 0 0.49 0.828 9.63 9.63 0 0 1 5.112 6.664c0.014 0.04 0.014 0.094 0.028 0.136 2 16.262 3.376 32.438 -1.422 48.508a16.4 16.4 0 0 1 -1.42 4.016c-0.2 0.342 -1.524 0.516 -1.89 0.518 -4.664 0.02 -9.372 0.414 -13.8 -1.6a4.24 4.24 0 0 1 -3.018 -4.38c1.346 -17.23 1.638 -21.77 2.502 -28.96 0.15 -1.252 0.692 -2.53 1.1 -0.45 0.272 10.688 -1.47 19.644 -0.95 30.268a0.856 0.856 0 0 0 0.57 0.762 21.964 21.964 0 0 0 12.496 1.358 2.32 2.32 0 0 0 1.238 -1.414 78.4 78.4 0 0 0 3.656 -28.784c-0.294 -6.024 -0.418 -12.062 -0.746 -18.084a16.516 16.516 0 0 0 -1 -3.496l0.014 0.028c-0.122 -0.286 -0.236 -0.568 -0.354 -0.856 -0.758 -1.876 -2.478 -2.7 -3.956 -3.822 -0.464 -0.352 -0.912 -0.748 -1.36 -1.114a3.512 3.512 0 0 0 0.082 -4.434 0.874 0.874 0 0 0 -1.074 -0.338 6.894 6.894 0 0 1 -4.106 0.4 3.692 3.692 0 0 1 -2.23 -4.2c0.638 -1.46 -0.538 -0.372 -1.538 -1.2 -0.342 -0.284 -0.122 -1.6 -0.216 -1.714 -0.872 -0.232 -2.038 0.868 -2.422 0.462 -0.336 -0.356 0.72 -2.91 0.98 -4.256 0.502 -2.6 -0.306 -6.714 0.53 -9.232a12.714 12.714 0 0 1 6.118 -6.8c3.982 -2.138 10.718 -2.502 14.632 2.582a4.496 4.496 0 0 0 1.644 0.926 8.974 8.974 0 0 0 0.898 0.312c1.6 0.574 1.866 1.092 0.884 2.08a0.84 0.84 0 0 0 -0.122 0.952 9.2 9.2 0 0 1 0.842 5.902c-0.134 0.72 0.576 1.6 0.926 2.4a12.068 12.068 0 0 1 1.386 7.342 7.6 7.6 0 0 1 -4.786 5.44c-1.6 0.7 -0.758 1.138 -0.966 6.934 -0.08 2.228 -1.6 2.6 -1.89 0.136 -0.108 -1.686 -0.06 -3.386 -0.054 -5.086a0.84 0.84 0 0 0 -0.748 -0.842c-2.072 -0.2 -3.6 -1.286 -1.658 -1.088a6.588 6.588 0 0 0 3.588 -0.748 7.058 7.058 0 0 0 4.38 -5.874 13.628 13.628 0 0 0 -3.7 -10.334c-2.014 -2.036 -2.582 -2.298 -5.492 -0.462 -0.268 0.136 -4.758 3.082 -6.754 4.216Zm-7.466 2.882c6.228 -4.06 12.49 -8.012 18.506 -11.816a0.836 0.836 0 0 0 -0.054 -1.442 5.026 5.026 0 0 1 -1.02 -0.706 10.966 10.966 0 0 0 -16.724 1.93c-1.468 2.34 -1.17 7.534 -1.89 10.566a18.822 18.822 0 0 0 -0.476 2.2c-0.128 0.696 1.074 -0.356 1.648 -0.732Z" fill="#ffffff" stroke-width="2"/><path d="M294.966 210.6c-1.374 -0.476 -1.148 -1.728 -0.966 -2.666 1.922 -9.892 6.494 -30.216 8.758 -39.962 2.624 -11.31 4.4 -16.692 11.23 -49.534 0.506 -2.426 0.296 -4.304 1 -4.882 0.378 -0.314 0.922 -0.702 1.332 -0.638 0.284 0.044 0.666 0.788 0.666 1.224a22.83 22.83 0 0 1 -0.286 4.2c-1.21 6.432 -2.422 12.876 -3.8 19.282 -0.046 0.2 -11.72 52.048 -15.814 68.38 -0.41 1.596 -0.134 3.646 -2.12 4.596Z" fill="#ffffff" stroke-width="2"/><path d="M301 130.31c-1.868 11.262 -3.012 19.988 -12.686 56.7 -1.03 3.904 -2.224 7.772 -3.292 11.666 -0.152 0.558 -3.126 6.446 -1.78 -5.22 0.8 -3.7 1.892 -7.328 2.868 -10.988 6.982 -26.172 2.748 -10.046 6.866 -27.656 0.342 -1.454 0.9 -2.868 1.17 -4.338 2.638 -14.324 5.086 -27.6 5.684 -32.958 0.124 -1.116 0.422 -1.778 1.59 -1.714 1.292 0.072 0.898 1.114 0.966 1.862 0.014 0.464 -0.768 8.936 -1.386 12.646Z" fill="#ffffff" stroke-width="2"/><path d="M354.712 284.6c-1.454 -8.444 -2.758 -16.9 -4.4 -25.304 -1.656 -8.458 -3.722 -16.84 -5.526 -25.27a3.8 3.8 0 0 1 0 -1.108c0.098 -1.864 0.476 -3.514 3.236 -2.2 0.898 1.346 1.918 2.624 2.68 4.038a149.132 149.132 0 0 1 9.49 22.626c2.082 9.072 4.246 17.6 4.432 26.318 0.042 1.902 -1.632 2.324 -2.814 2.91a21.536 21.536 0 0 1 -4.542 1.372 1.778 1.778 0 0 1 -2.4 -1.8c-0.068 -0.512 -0.102 -1.042 -0.156 -1.582Zm-8.186 -51.084c5.874 17.486 7.928 34.2 10.824 51.942a32.276 32.276 0 0 1 3.154 -0.898c1.742 -0.31 2.22 -1.184 1.932 -2.95 -3.434 -21 -5.638 -31.2 -14.346 -48.2 -0.544 -0.89 -2.04 -1.774 -1.564 0.102Z" fill="#ffffff" stroke-width="2"/><path d="M360.178 257.382a148.232 148.232 0 0 0 -9.49 -22.626c-0.764 -1.414 -1.782 -2.692 -2.68 -4.038a23.058 23.058 0 0 1 11.068 -3.978c0.884 -0.134 1.212 0.232 1.388 1.116a2020.26 2020.26 0 0 0 4.65 22.816c0.708 3.358 0.8 3.368 -1.972 5.126 -0.942 0.602 -1.972 1.054 -2.964 1.584Z" fill="#ffffff" stroke-width="2"/><path d="M379.718 242.5a18.212 18.212 0 0 1 -9.968 8.6c-2.244 1 -3.358 0.014 -0.774 -1.306a27.4 27.4 0 0 0 10.334 -12.306 30.84 30.84 0 0 0 1.93 -9.45c0.966 -7.682 -5.098 -21.334 -8.824 -26.704 0 0 -2.6 -3.374 -5.656 -7 -1.372 -1.634 -1.906 -2.292 -3.034 -2.544a14.618 14.618 0 0 1 -2.148 -0.312c-0.858 -0.24 -1.644 -0.858 0 -1.292a4.738 4.738 0 0 1 4.692 1.442 90.026 90.026 0 0 1 13.012 17.554c7.656 19.584 3.682 28.104 0.436 33.318Z" fill="#ffffff" stroke-width="2"/><path d="M240.618 117.216c-0.4 -2.338 0.848 -2.528 3.06 0.6a1328.136 1328.136 0 0 1 5.6 8.022c4.636 -2.6 8.6 -6.498 13.936 -7.64 1.142 -0.4 3.044 0.21 -1.168 3 -3.256 2.15 -6.512 4.3 -9.818 6.4 -1.032 0.652 -1.248 1.112 -0.4 2.23 2.454 3.2 4.734 6.52 7.016 9.844 0.514 0.748 1.674 1.648 0.652 2.61 -0.216 0.2 -1.844 -0.616 -2.4 -1.306 -1.92 -2.35 -6.568 -8.236 -8.334 -10.674a95.468 95.468 0 0 1 -12.442 9.098c-0.668 0.43 -1.8 0.922 -2.162 -0.232 -0.162 -0.518 0.584 -1.522 1.17 -2 1.864 -1.522 3.862 -2.868 5.75 -4.366 1.768 -1.4 3.4 -3 5.2 -4.35 0.8 -0.6 0.718 -1.058 0.3 -1.714 -1.554 -2.47 -5.47 -8.72 -5.96 -9.522Z" fill="#ffffff" stroke-width="2"/><path d="M279.8 217.426c2.502 3.296 5.2 6.446 7.532 9.858a61.444 61.444 0 0 0 10.6 12c3.9 3.346 7.668 7.108 12.32 9.314 1.43 0.678 2.4 1.576 -0.068 1.346a29.764 29.764 0 0 1 -12.822 -7.356 83.066 83.066 0 0 1 -18.752 -24.148c-1.078 -1.97 -0.656 -3.452 1.19 -1.014Z" fill="#ffffff" stroke-width="2"/><path d="M219.094 183.666c-5 -4.468 -10.016 -8.76 -16.766 -10.852 -7.118 -2.2 -13.702 -0.172 -17.158 0.476 -1.2 0.518 -1.986 -0.108 -0.776 -1.278a10.154 10.154 0 0 1 5.712 -2.624 26.216 26.216 0 0 1 15.744 1.564c4.676 2.112 9.2 4.542 12.238 8.92a21.15 21.15 0 0 1 1.6 3.412c0.112 0.544 -0.088 0.836 -0.594 0.382Z" fill="#ffffff" stroke-width="2"/><path d="M305.056 224.634a61.788 61.788 0 0 1 -17.854 -11.79c-10.544 -10.476 -8.658 -8.906 -11.626 -15.296 -0.476 -1.278 -0.012 -3.508 1.414 -0.612 2.366 5.956 7.224 9.76 11.762 13.856 6.218 5.6 13.516 9.612 20.628 13.91 0.244 0.176 2.936 4.052 -4.324 -0.068Z" fill="#ffffff" stroke-width="2"/><path d="M307.884 364.576c6.064 -0.762 8.868 -3.028 13.4 -6.282 1.852 -1.334 2.078 0.228 1.782 0.652a18.844 18.844 0 0 1 -10.986 7.4 15.95 15.95 0 0 1 -5.562 1c-1.918 -0.162 -2.624 -1.21 -1.822 -3.046 2.442 -5.6 8.43 -7.62 14.222 -9.45 0.858 -0.27 2.2 -0.884 2.652 0.476 0.436 1.32 -0.814 1.636 -1.8 2.026 -7.17 2.868 -10.314 3.676 -11.886 7.224Z" fill="#ffffff" stroke-width="2"/><path d="M355.418 360.264c4.638 3 7.03 4.284 12.782 4.65 1.6 0.2 1.672 -0.488 1.17 -0.814a6.762 6.762 0 0 0 -2.76 -1.238c-2.502 -0.82 -4.814 -2.08 -7.534 -3.168 -2.2 -1.21 -2.294 -2 2.094 -0.708 3.244 0.962 6.39 2.246 9.546 3.496a4.31 4.31 0 0 1 1.7 1.386 1.788 1.788 0 0 1 -0.952 2.938 16.05 16.05 0 0 1 -6.676 0.134 21.526 21.526 0 0 1 -9.75 -4.378c-1.55 -1.808 -1.658 -3.426 0.38 -2.298Z" fill="#ffffff" stroke-width="2"/><path d="M369.302 215.782c0.45 4.304 -1.876 7.166 -5.032 9.504 -1.848 1.21 -2.23 0.4 -1.114 -1a39.482 39.482 0 0 0 2.474 -3.44 12.844 12.844 0 0 0 0.028 -10.524 22.514 22.514 0 0 0 -5.52 -8.988c-0.244 -0.232 -1.674 -2.258 0.814 -1.238a10.4 10.4 0 0 1 2.136 1.672 23.376 23.376 0 0 1 6.214 14.014Z" fill="#ffffff" stroke-width="2"/><path d="M297.346 81.048a0.784 0.784 0 0 0 -1.278 0.502c-0.13 1.02 0 2.15 -0.734 1.47a3.478 3.478 0 0 1 -0.4 -3.672 1.986 1.986 0 0 1 2.842 0 13.822 13.822 0 0 1 4.976 5.534c0.552 1.044 0.39 1.762 -0.844 0.666 -1.708 -1.512 -1.782 -2.174 -4.562 -4.5Z" fill="#ffffff" stroke-width="2"/><path d="M356.52 193.754c-1.102 -0.19 -0.612 -0.878 0.68 -0.91a10.688 10.688 0 0 1 4.964 0.652 3.02 3.02 0 0 1 1.25 0.842c1.508 1.756 0.476 1.85 0.312 1.81 -2.094 -1.496 -3.63 -1.334 -7.206 -2.394Z" fill="#ffffff" stroke-width="2"/><path d="M339.51 212.152a10.6 10.6 0 0 1 3.154 3.67 4.152 4.152 0 0 1 -0.068 2.788c-0.052 0.19 -0.4 0.5 -0.57 0.476 -0.244 -0.032 -0.696 -0.34 -0.68 -0.49 0.32 -3.144 -1.862 -4.786 -3.78 -6.6 -1.318 -0.878 -1.034 -1.666 1.944 0.156Z" fill="#ffffff" stroke-width="2"/><path d="M277.032 213.362c-2.19 3.752 -0.326 4.936 0.298 6.948a3.384 3.384 0 0 1 -2.936 -3.224c-0.086 -2.624 0.406 -3.534 2.638 -3.724Z" fill="#ffffff" stroke-width="2"/><path d="M362.38 198.378a12.942 12.942 0 0 0 -6.132 -1.278c-0.626 0 -1.072 -0.91 -0.272 -1.51 1.104 -0.826 4.41 0.2 5.888 1.156 0.914 0.594 1.59 2.054 0.516 1.632Z" fill="#ffffff" stroke-width="2"/><path d="M275.386 205.284c-1.876 -0.652 -2.768 0.214 -3.386 1.66a1.154 1.154 0 0 1 -1.074 0.4 1.296 1.296 0 0 1 -0.476 -1.06 4.892 4.892 0 0 1 0.45 -1.8c0.4 -0.88 0.822 -1.648 2.094 -1.6 1.576 0.08 2.106 0.62 2.392 2.4Z" fill="#ffffff" stroke-width="2"/><path d="M274.842 208.67c-1.89 1.51 -3.29 2.612 -1.712 4.446 1.6 1.442 -0.232 2.182 -1.836 -0.176a2.754 2.754 0 0 1 0.286 -3.1 2.5 2.5 0 0 1 3.262 -1.17Z" fill="#ffffff" stroke-width="2"/><path d="M336.248 222.336h5.37c0.8 0.462 0.626 0.982 -1.2 1.032 -2.552 0.072 -4.17 -0.34 -4.17 -1.032Z" fill="#ffffff" stroke-width="2"/><path d="M23.894 291.082c-0.218 -0.026 -0.442 -0.034 -0.66 -0.06 0.218 0.026 0.442 0.034 0.66 0.06Z" fill="#ffffff" stroke-width="2"/><path d="M297.25 337.884a14.75 14.75 0 0 1 -3.154 0.734c-9.504 0.13 -19.022 0.34 -28.526 0.232 -28.38 -0.326 -91.636 -3.6 -129.4 -4.434 -20.492 -0.454 -41 -0.506 -61.486 -0.8a68.378 68.378 0 0 1 -8.24 -0.734 2.952 2.952 0 0 1 -1.4 -0.916 0.862 0.862 0 0 1 -0.138 -1.096c1.742 -2.716 0.908 -0.418 33.898 -19.988a10.27 10.27 0 0 1 5.8 -1.074c7.506 0.156 119 1.478 131.92 1.836 8.73 0.242 17.458 1 26.188 1.508a12.468 12.468 0 0 1 7.424 3.632c4.296 3.644 8.838 7.016 13.338 10.428 5.742 4.352 6.246 4.318 13.72 10.102 0.006 0.176 0.03 0.38 0.056 0.57Zm-107 -9.75c9.056 0.518 17.892 1.054 26.732 1.564 0.956 0.056 2.77 2.184 4.474 3.468a1.318 1.318 0 0 0 1.292 -0.136 1.888 1.888 0 0 0 0.162 -1.456 6.43 6.43 0 0 0 -0.924 -1.562 1.95 1.95 0 0 1 0.544 -0.124c7.862 0.528 15.746 0.7 23.618 1.048 2.2 0.096 4.52 -0.024 5.874 2.256 0.264 0.446 0.734 0.384 2.978 0.572 -0.666 -2.562 -0.568 -1.93 -0.502 -2.516 0.516 0.028 1.046 0.078 1.576 0.082 10 0.08 7.178 0.344 9.818 -0.952a7.5 7.5 0 0 0 -2.176 -0.87c-3.522 -0.2 -7.058 -0.27 -10.578 -0.476 -1.542 -0.09 -2.178 -0.926 -6.894 -5.642 -0.272 -0.272 -0.476 -0.612 -0.844 -1.074 5.562 -0.096 10.878 0.666 16.182 -0.34a2.342 2.342 0 0 0 -1.4 -0.6c-4.052 -0.352 -8.104 -0.786 -12.168 -1.046 -3.17 -0.2 -6.326 -0.244 -8.35 -3.276 -0.054 -0.082 -0.148 -0.2 -0.23 -0.218 -0.434 -0.064 -1.034 -0.246 -1.278 -0.042s-0.27 0.856 -0.164 1.266a4.664 4.664 0 0 0 0.584 1.168q-12.542 0 -25.1 -0.04a2.626 2.626 0 0 1 -1.6 -0.816 25.184 25.184 0 0 0 -2.122 -2.448c-0.53 -0.4 -1.44 -0.312 -2.188 -0.448a7.484 7.484 0 0 0 0.136 1.93 8.824 8.824 0 0 0 1.128 1.8c-0.898 0 -13.488 -0.112 -19.186 -0.19a6.052 6.052 0 0 1 -2.692 -0.216c-0.474 -0.276 -0.3 -1.51 -0.624 -2.218 -0.2 -0.448 -0.79 -1 -1.2 -1s-0.932 0.628 -1.088 1.088a8.952 8.952 0 0 0 -0.162 2.244c-7.846 -0.3 -15.582 -0.6 -23.428 -0.912a23.22 23.22 0 0 0 -0.054 -3.29c-0.066 -0.45 -0.654 -0.816 -1 -1.224 -1.148 1.246 -0.8 0.066 -1.686 4.378 -6.934 -0.286 -13.718 -0.57 -20.504 -0.842a21.928 21.928 0 0 0 -0.206 -3.224c-0.638 0.6 -1.294 1.178 -1.902 1.8 -0.214 0.222 -0.248 0.622 -0.464 0.844s-0.57 0.554 -0.87 0.556c-3.78 0.02 -7.546 0.028 -11.76 0.028 1.54 -2.086 1.3 -1.4 1.766 -3.63a6.072 6.072 0 0 0 -1.8 0.638c-0.722 0.558 -1.236 1.376 -1.93 1.972a2.872 2.872 0 0 1 -1.632 0.774c-21.838 -0.022 -18.53 -0.376 -20.11 0.056a2.24 2.24 0 0 0 1.562 0.952c4.23 0.2 13.32 0.638 17.6 0.638 0.04 0.164 0.082 0.326 0.108 0.49 -1.428 1.468 -2.8 3 -4.31 4.378a3.33 3.33 0 0 1 -2.026 0.72c-18.462 0.42 -12.462 0.03 -17.092 0.544 0 0.258 0.014 0.518 0.014 0.776 5.222 0.218 10.456 0.434 15.746 0.666 -0.666 0.898 -1.252 1.672 -1.836 2.46 0.108 0.164 0.232 0.328 0.34 0.49a7.4 7.4 0 0 0 2.6 -0.966 7.068 7.068 0 0 1 6.582 -1.8 18.866 18.866 0 0 0 3.262 0.054h8.308a8.106 8.106 0 0 1 -0.054 0.87c-0.298 0.858 -0.612 1.92 0.462 2.2 0.572 0.15 1.382 -0.688 2.082 -1.088 0.478 -0.274 -0.06 -1.69 2.4 -1.646 5.33 0.096 19.866 0.258 21.81 0.258a11.048 11.048 0 0 0 0.218 2.544c0.174 0.53 0.788 0.91 1.21 1.36 0.4 -0.436 1 -0.8 1.2 -1.32a10.702 10.702 0 0 0 0.4 -2.324c0.164 -0.068 0.258 -0.152 0.354 -0.15 8.91 0.156 17.81 0.666 26.718 1a1.938 1.938 0 0 1 1.264 0.966c0.6 1.036 0.928 2.214 1.578 3.2 0.356 0.544 1.128 0.8 1.726 1.184a8.096 8.096 0 0 0 0.4 -2.08 18.764 18.764 0 0 0 -0.67 -3.08Z" fill="#ffffff" stroke-width="2"/><path d="M176.276 115.57c-3.086 3.25 -5.948 6.29 -8.864 9.26 -0.574 0.584 -1.906 1.362 -2.136 1.17 -1.07 -0.9 -0.174 -1.944 0.436 -2.652 2.342 -2.716 4.784 -5.334 7.2 -7.982 0.506 -0.554 1.102 -1.032 1.822 -1.712a278.558 278.558 0 0 1 -6.554 -10c-0.774 -1.252 -0.638 -3.128 1.7 -0.884 2.122 2.678 4.186 5.4 6.242 8.146 0.2 0.256 0.422 0.474 0.8 0.896 9.4 -7.542 8.616 -7.132 11.218 -9.124 1.78 -1.6 3.182 0.178 1.726 1.6a104 104 0 0 1 -11.244 9.858 89.4 89.4 0 0 1 7.832 12.318c0.72 1 -0.246 2.774 -2.068 0.844 -2.284 -3.236 -4.4 -6.586 -6.662 -9.846 -0.34 -0.482 -0.724 -0.926 -1.448 -1.892Z" fill="#ffffff" stroke-width="2"/><path d="M247.158 328.624c-6.498 -0.272 -23.864 -0.942 -26 -1.156 -1.534 -0.152 -2.036 -1.024 -6.758 -6.064 3.88 0 22.782 0.55 25.8 0.64a2.136 2.136 0 0 1 1.306 0.434c2.03 1.86 3.984 3.78 5.97 5.67a5.6 5.6 0 0 1 -0.318 0.476Z" fill="#ffffff" stroke-width="2"/><path d="M187.358 321.146c4.664 0 19.214 0.062 21.974 0.136a2.182 2.182 0 0 1 1.36 0.312c1.75 1.744 3.44 3.562 5.4 5.63 -4.078 -0.232 -20.178 -1.164 -24.514 -1.306 -1.618 -0.052 -2.826 -0.3 -3.21 -2.148a16.342 16.342 0 0 0 -1.01 -2.624Z" fill="#ffffff" stroke-width="2"/><path d="M184.176 320.888c0.532 1.522 1.062 2.978 1.632 4.6 -8.906 -0.312 -17.648 -0.6 -26.542 -0.91 0.272 -1.522 0.544 -3 0.816 -4.556 8.036 0.28 16.004 0.566 24.094 0.866Z" fill="#ffffff" stroke-width="2"/><path d="M157.35 319.772c-0.354 1.782 -0.64 3.25 -0.952 4.8H133.812c0.83 -1.8 1.614 -3.552 2.462 -5.262 0.094 -0.19 0.558 -0.298 0.844 -0.286 6.66 0.274 13.338 0.49 20.232 0.748Z" fill="#ffffff" stroke-width="2"/><path d="M116.056 324.014c4.512 -5.134 4.6 -5.382 5.152 -5.384 3.984 -0.014 7.968 -0.014 12.388 -0.014 -1.17 2.122 -2.07 3.778 -3 5.386a1.234 1.234 0 0 1 -0.896 0.516q-6.8 0.022 -13.57 0.028c-0.034 -0.178 -0.048 -0.346 -0.074 -0.532Z" fill="#ffffff" stroke-width="2"/><path d="M335.192 216.144a1.36 0.912 64.749 1 0 1.65 -0.778 1.36 0.912 64.749 1 0 -1.65 0.78Z" fill="#ffffff" stroke-width="2"/></svg>